<?xml version="1.0" standalone="no"?>
<!DOCTYPE svg PUBLIC "-//W3C//DTD SVG 20010904//EN"
 "http://www.w3.org/TR/2001/REC-SVG-20010904/DTD/svg10.dtd">
<svg version="1.0" xmlns="http://www.w3.org/2000/svg"
 width="512.000000pt" height="512.000000pt" viewBox="0 0 512.000000 512.000000"
 preserveAspectRatio="xMidYMid meet">
<metadata>
Created by potrace 1.16, written by Peter Selinger 2001-2019
</metadata>
<g transform="translate(0.000000,512.000000) scale(0.100000,-0.100000)"
fill="#000000" stroke="none">
<path d="M2330 4553 c-97 -10 -271 -47 -373 -78 -778 -235 -1345 -896 -1461
-1702 -12 -85 -16 -191 -16 -442 l0 -331 -39 -19 c-21 -11 -50 -34 -65 -52
-56 -67 -56 -62 -56 -566 l0 -465 27 -50 c69 -127 234 -163 358 -78 47 32 95
114 95 162 0 26 3 28 40 28 l40 0 0 -108 c0 -96 3 -114 26 -160 29 -58 84
-103 149 -121 52 -14 238 -14 290 0 65 18 120 63 149 121 l26 52 0 623 c0 501
-3 630 -13 656 -22 52 -68 98 -122 123 -45 21 -64 24 -185 24 -121 0 -140 -3
-185 -24 -54 -25 -100 -71 -122 -123 -8 -21 -13 -73 -13 -143 l0 -110 -40 0
c-37 0 -40 2 -40 29 0 65 -55 148 -122 182 l-39 20 3 192 c1 106 4 231 6 279
l3 86 101 4 c90 3 102 5 118 26 11 13 22 44 25 70 54 417 218 749 512 1033
642 619 1660 621 2300 5 298 -286 464 -619 518 -1038 3 -26 14 -57 25 -70 16
-21 28 -23 118 -26 l99 -4 6 -141 c4 -78 7 -204 7 -279 l0 -138 -39 -19 c-66
-34 -121 -117 -121 -182 0 -27 -3 -29 -40 -29 l-40 0 0 110 c0 70 -5 122 -13
143 -22 52 -68 98 -122 123 -45 21 -64 24 -185 24 -121 0 -140 -3 -185 -24
-54 -25 -100 -71 -122 -123 -10 -26 -13 -155 -13 -656 l0 -623 26 -52 c29 -58
84 -103 149 -121 52 -14 238 -14 290 0 65 18 120 63 149 121 23 46 26 64 26
160 l0 108 40 0 c38 0 40 -1 40 -31 0 -47 48 -127 96 -160 125 -86 294 -46
358 83 l26 52 0 462 c0 500 0 496 -56 563 -15 18 -44 41 -65 52 l-39 19 0 331
c0 364 -9 464 -61 666 -129 504 -442 942 -879 1229 -261 170 -574 284 -890
324 -78 9 -401 12 -480 3z m465 -174 c194 -21 446 -98 638 -197 519 -265 902
-778 1007 -1347 6 -33 13 -70 16 -82 4 -20 0 -23 -31 -23 -28 0 -36 4 -39 23
-3 12 -14 69 -26 125 -127 620 -600 1150 -1206 1351 -591 197 -1224 93 -1714
-279 -345 -263 -595 -657 -680 -1072 -12 -56 -23 -113 -26 -125 -3 -19 -11
-23 -39 -23 -31 0 -35 3 -31 23 3 12 13 59 21 105 122 625 572 1164 1171 1401
298 118 597 156 939 120z m-1468 -2399 c13 -11 24 -38 28 -62 3 -24 5 -290 3
-591 l-3 -549 -28 -24 c-26 -22 -37 -24 -127 -24 -90 0 -101 2 -127 24 l-28
24 -3 549 c-2 301 0 567 3 591 10 71 31 82 155 82 92 0 109 -3 127 -20z m2720
0 c13 -11 24 -38 28 -62 3 -24 5 -290 3 -591 l-3 -549 -28 -24 c-26 -22 -37
-24 -127 -24 -90 0 -101 2 -127 24 l-28 24 -3 549 c-2 301 0 567 3 591 10 71
31 82 155 82 92 0 109 -3 127 -20z m-3440 -160 c13 -11 24 -38 28 -62 3 -24 5
-218 3 -431 l-3 -389 -28 -24 c-15 -13 -37 -24 -47 -24 -10 0 -32 11 -47 24
l-28 24 -3 389 c-2 213 0 407 3 431 7 49 37 82 75 82 14 0 36 -9 47 -20z
m4000 0 c13 -11 24 -38 28 -62 3 -24 5 -218 3 -431 l-3 -389 -28 -24 c-15 -13
-37 -24 -47 -24 -10 0 -32 11 -47 24 l-28 24 -3 389 c-2 213 0 407 3 431 7 49
37 82 75 82 14 0 36 -9 47 -20z m-3727 -455 l0 -235 -40 0 -40 0 0 235 0 235
40 0 40 0 0 -235z m3440 0 l0 -235 -40 0 -40 0 0 235 0 235 40 0 40 0 0 -235z"/>
<path d="M1893 3255 c-311 -68 -509 -466 -402 -810 47 -153 168 -356 336 -565
193 -240 502 -559 581 -599 53 -27 150 -28 207 -2 49 22 196 161 366 344 323
348 514 636 570 857 18 70 21 103 16 190 -18 371 -285 634 -598 590 -129 -18
-247 -78 -377 -191 l-77 -67 -58 54 c-115 107 -235 174 -357 200 -79 17 -126
16 -207 -1z m242 -186 c73 -27 152 -87 258 -198 79 -81 92 -91 124 -91 32 0
45 9 117 86 126 135 244 209 363 229 51 8 147 -15 200 -48 146 -92 235 -333
192 -515 -17 -72 -91 -222 -162 -330 -106 -163 -262 -347 -477 -566 -172 -174
-210 -208 -234 -208 -23 0 -56 28 -183 153 -312 311 -528 584 -632 802 -70
145 -83 232 -56 362 57 272 264 409 490 324z"/>
</g>
</svg>
